<svg version="1.1" id="レイヤー_1" xmlns="http://www.w3.org/2000/svg" xmlns:xlink="http://www.w3.org/1999/xlink" x="0px" y="0px" viewBox="0 0 161.6 115.6" style="enable-background:new 0 0 161.6 115.6;" xml:space="preserve">
 <style type="text/css">
  .st0{fill:#D62427;}
 </style>
 <g id="g76">
  <g id="g86" transform="translate(453.12,55.28)">
   <path id="path88" class="st0" d="M-348.3,2.5c0,13.1-10.7,23.9-24.1,23.9c-13.1,0-23.6-10.7-23.6-23.9c0-13.4,10.5-24.1,23.6-24.1&#xA;&#x9;&#x9;&#x9;C-359-21.6-348.3-10.9-348.3,2.5z M-372.4,54.5c-28.4,0-51.8-23.4-51.8-52.1c0-28.9,23.4-52.3,51.8-52.3&#xA;&#x9;&#x9;&#x9;c28.9,0,52.1,23.4,52.1,52.3C-320.4,31.1-343.5,54.5-372.4,54.5z M-348.8-55.3c-8.4,0-16.2,1.7-23.6,4.8c-6.9-3.1-15-4.8-23.2-4.8&#xA;&#x9;&#x9;&#x9;c-32,0-57.5,25.6-57.5,57.8c0,31.8,25.6,57.8,57.5,57.8c8.1,0,16.2-1.9,23.2-5c7.4,3.1,15.3,5,23.6,5c31.8,0,57.3-26,57.3-57.8&#xA;&#x9;&#x9;&#x9;C-291.5-29.7-317-55.3-348.8-55.3">
   </path>
  </g>
 </g>
</svg>